<svg width="24" height="20" viewBox="0 0 24 20" fill="none" xmlns="http://www.w3.org/2000/svg">
<path fill-rule="evenodd" clip-rule="evenodd" d="M18.3713 19.6186C18.6708 19.8171 19.0702 19.9164 19.4696 19.7179C19.869 19.6186 20.0686 19.2216 20.1685 18.9238C21.0671 14.8543 23.1638 4.63097 23.9626 0.958501C24.0624 0.660733 23.9626 0.362965 23.663 0.164453C23.4633 -0.0340593 23.1638 -0.0340593 22.8643 0.0651967C18.6708 1.55404 5.79095 6.31833 0.49922 8.30344C0.199688 8.4027 0 8.70047 0 9.09749C0 9.49452 0.299532 9.79229 0.599064 9.89154C2.99532 10.5863 6.09048 11.5789 6.09048 11.5789C6.09048 11.5789 7.58814 15.9462 8.28705 18.1298C8.38689 18.4276 8.58658 18.6261 8.88611 18.7253C9.18565 18.8246 9.48518 18.7253 9.68487 18.5268C10.883 17.435 12.78 15.6484 12.78 15.6484C12.78 15.6484 16.3744 18.1298 18.3713 19.6186ZM7.38845 10.9834L9.0858 16.4424L9.48518 12.9685C9.48518 12.9685 15.975 7.11237 19.6693 3.83692C19.7691 3.73767 19.7691 3.53916 19.6693 3.4399C19.5694 3.34064 19.3697 3.34064 19.2699 3.34064C14.9766 6.11981 7.38845 10.9834 7.38845 10.9834Z" fill="white"/>
</svg>
