<svg width="113" height="25" viewBox="0 0 113 25" fill="none" xmlns="http://www.w3.org/2000/svg">
<path d="M19.9042 2.30398V24.704H15.7442V15.104H4.16019V24.704H0.000187635V2.30398H4.16019V11.552H15.7442V2.30398H19.9042ZM25.5224 7.61598H29.5224V24.704H25.5224V7.61598ZM27.5384 4.79998C26.8131 4.79998 26.2051 4.57598 25.7144 4.12798C25.2238 3.65865 24.9784 3.08265 24.9784 2.39998C24.9784 1.71731 25.2238 1.15198 25.7144 0.703978C26.2051 0.234645 26.8131 -2.09808e-05 27.5384 -2.09808e-05C28.2638 -2.09808e-05 28.8718 0.223979 29.3624 0.671978C29.8531 1.09865 30.0984 1.64265 30.0984 2.30398C30.0984 3.00798 29.8531 3.60531 29.3624 4.09598C28.8931 4.56531 28.2851 4.79998 27.5384 4.79998ZM40.4044 24.928C38.6338 24.928 37.2471 24.448 36.2444 23.488C35.2631 22.5066 34.7724 21.1306 34.7724 19.36V0.959978H38.7724V19.072C38.7724 20.7786 39.5724 21.632 41.1724 21.632C41.7058 21.632 42.1858 21.5253 42.6124 21.312L42.8044 24.512C42.0578 24.7893 41.2578 24.928 40.4044 24.928ZM45.5224 7.61598H49.5224V24.704H45.5224V7.61598ZM47.5384 4.79998C46.8131 4.79998 46.2051 4.57598 45.7144 4.12798C45.2238 3.65865 44.9784 3.08265 44.9784 2.39998C44.9784 1.71731 45.2238 1.15198 45.7144 0.703978C46.2051 0.234645 46.8131 -2.09808e-05 47.5384 -2.09808e-05C48.2638 -2.09808e-05 48.8718 0.223979 49.3624 0.671978C49.8531 1.09865 50.0984 1.64265 50.0984 2.30398C50.0984 3.00798 49.8531 3.60531 49.3624 4.09598C48.8931 4.56531 48.2851 4.79998 47.5384 4.79998ZM64.4684 7.42398C66.6231 7.42398 68.3511 8.05331 69.6524 9.31198C70.9538 10.5706 71.6044 12.4373 71.6044 14.912V24.704H67.6044V15.424C67.6044 13.9306 67.2524 12.8106 66.5484 12.064C65.8444 11.296 64.8418 10.912 63.5404 10.912C62.0684 10.912 60.9058 11.36 60.0524 12.256C59.1991 13.1306 58.7724 14.4 58.7724 16.064V24.704H54.7724V7.61598H58.5804V9.82398C59.2418 9.03465 60.0738 8.43731 61.0764 8.03198C62.0791 7.62665 63.2098 7.42398 64.4684 7.42398ZM84.9629 21.536C86.8189 21.536 88.3656 20.9173 89.6029 19.68L91.7149 22.144C90.9683 23.0613 90.0083 23.7546 88.8349 24.224C87.6616 24.6933 86.3389 24.928 84.8669 24.928C82.9896 24.928 81.3363 24.5546 79.9069 23.808C78.4776 23.0613 77.3683 22.0266 76.5789 20.704C75.8109 19.36 75.4269 17.8453 75.4269 16.16C75.4269 14.496 75.8003 13.0026 76.5469 11.68C77.3149 10.336 78.3603 9.29065 79.6829 8.54398C81.0269 7.79731 82.5416 7.42398 84.2269 7.42398C85.8269 7.42398 87.2776 7.77598 88.5789 8.47998C89.9016 9.16265 90.9469 10.1546 91.7149 11.456C92.4829 12.736 92.8669 14.24 92.8669 15.968L79.7789 18.528C80.1843 19.5093 80.8349 20.256 81.7309 20.768C82.6269 21.28 83.7043 21.536 84.9629 21.536ZM84.2269 10.624C82.7549 10.624 81.5603 11.104 80.6429 12.064C79.7469 13.024 79.2989 14.3146 79.2989 15.936V15.968L88.9629 14.112C88.6856 13.0666 88.1203 12.224 87.2669 11.584C86.4349 10.944 85.4216 10.624 84.2269 10.624ZM104.838 21.536C106.694 21.536 108.241 20.9173 109.478 19.68L111.59 22.144C110.843 23.0613 109.883 23.7546 108.71 24.224C107.537 24.6933 106.214 24.928 104.742 24.928C102.865 24.928 101.211 24.5546 99.7819 23.808C98.3526 23.0613 97.2433 22.0266 96.4539 20.704C95.6859 19.36 95.3019 17.8453 95.3019 16.16C95.3019 14.496 95.6753 13.0026 96.4219 11.68C97.1899 10.336 98.2353 9.29065 99.5579 8.54398C100.902 7.79731 102.417 7.42398 104.102 7.42398C105.702 7.42398 107.153 7.77598 108.454 8.47998C109.777 9.16265 110.822 10.1546 111.59 11.456C112.358 12.736 112.742 14.24 112.742 15.968L99.6539 18.528C100.059 19.5093 100.71 20.256 101.606 20.768C102.502 21.28 103.579 21.536 104.838 21.536ZM104.102 10.624C102.63 10.624 101.435 11.104 100.518 12.064C99.6219 13.024 99.1739 14.3146 99.1739 15.936V15.968L108.838 14.112C108.561 13.0666 107.995 12.224 107.142 11.584C106.31 10.944 105.297 10.624 104.102 10.624Z" fill="black"/>
</svg>
