<svg width="21" height="18" viewBox="0 0 21 18" fill="none" xmlns="http://www.w3.org/2000/svg">
<path fill-rule="evenodd" clip-rule="evenodd" d="M16.0749 17.1663C16.337 17.34 16.6864 17.4268 17.0359 17.2531C17.3853 17.1663 17.5601 16.8189 17.6474 16.5584C18.4337 12.9975 20.2683 4.0521 20.9672 0.838688C21.0546 0.578141 20.9672 0.317594 20.7051 0.143896C20.5304 -0.0298019 20.2683 -0.0298019 20.0062 0.0570471C16.337 1.35978 5.06708 5.52853 0.436817 7.26551C0.174727 7.35236 0 7.61291 0 7.96031C0 8.3077 0.26209 8.56825 0.524181 8.6551C2.6209 9.26304 5.32917 10.1315 5.32917 10.1315C5.32917 10.1315 6.63963 13.9529 7.25117 15.8636C7.33853 16.1241 7.51326 16.2978 7.77535 16.3847C8.03744 16.4715 8.29953 16.3847 8.47426 16.211C9.52262 15.2556 11.1825 13.6923 11.1825 13.6923C11.1825 13.6923 14.3276 15.8636 16.0749 17.1663ZM6.4649 9.61044L7.95008 14.3871L8.29953 11.3474C8.29953 11.3474 13.9782 6.22333 17.2106 3.35731C17.298 3.27046 17.298 3.09676 17.2106 3.00991C17.1232 2.92306 16.9485 2.92306 16.8612 2.92306C13.1045 5.35484 6.4649 9.61044 6.4649 9.61044Z" fill="white"/>
</svg>
