<svg width="39" height="39" viewBox="0 0 39 39" fill="none" xmlns="http://www.w3.org/2000/svg">
<path fill-rule="evenodd" clip-rule="evenodd" d="M19.919 38.8887C16.0916 38.8887 14.313 38.3275 11.2213 36.0829C9.26573 38.6081 3.07306 40.5816 2.803 37.2052C2.803 34.6706 2.24426 32.5288 1.61103 30.1907C0.856731 27.31 0 24.102 0 19.4537C0 8.352 9.07017 0 19.8166 0C30.5723 0 38.9999 8.76352 38.9999 19.5566C39.036 30.1827 30.4991 38.832 19.919 38.8887ZM20.0773 9.59592C14.8438 9.32469 10.765 12.9629 9.86172 18.6681C9.11673 23.3912 10.4391 29.1432 11.5659 29.4424C12.106 29.5734 13.4656 28.4698 14.313 27.6187C15.7142 28.5909 17.346 29.1748 19.0436 29.3115C24.4664 29.5735 29.1 25.4272 29.4641 19.9868C29.6761 14.535 25.5008 9.91726 20.0773 9.60527L20.0773 9.59592Z" fill="black"/>
</svg>
